<svg width="30" height="30" viewBox="0 0 30 30" fill="none" xmlns="http://www.w3.org/2000/svg">
<g clip-path="url(#clip0_4001_34629)">
<path d="M5.16 0H24.48L24.96 0.24L25.2 0.6L25.26 0.78V2.1H27.66L28.38 2.34L29.1 2.76L29.58 3.3L29.88 3.84L30 4.44V9.84L29.82 10.56L29.58 11.04L29.88 11.58L30 12.18V17.58L29.82 18.3L29.58 18.78L29.88 19.32L30 19.92V22.08L29.76 22.56L29.4 22.8L29.22 22.86H28.44L27.96 22.62L27.66 22.2L27.6 22.02L27.54 20.28L27.3 20.04L27.06 19.98L25.26 19.92V25.26H27.42L27.9 25.5L28.2 25.92L28.26 26.1V26.88L28.02 27.36L27.48 27.66H25.26V29.22L25.02 29.7L24.66 29.94L24.48 30H5.16L4.44 29.82L3.78 29.46L3.06 28.8L2.64 28.14L2.34 27.18V25.98L1.98 25.86L1.26 25.44L0.66 24.84L0.54 24.54H0.42L0.12 23.94L0 23.28V21.96L0.18 21.18L0.54 20.52L0.9 20.1L1.62 19.56L2.22 19.26H2.34V18.96L1.98 18.84L1.26 18.42L0.72 17.88L0.3 17.22L0.12 16.92L0 16.26V14.94L0.18 14.16L0.54 13.5L1.2 12.78L1.62 12.54L2.22 12.24H2.34V11.94L1.98 11.82L1.26 11.4L0.72 10.86L0.3 10.2L0.12 9.84L0 9.24V7.86L0.18 7.14L0.54 6.48L1.2 5.76L1.86 5.34L2.22 5.16H2.34V2.82L2.7 1.74L3.18 1.08L3.78 0.54L4.56 0.12L5.16 0ZM5.88 2.34L5.4 2.46L5.04 2.7L4.86 2.94L4.74 3.48V5.04L6.3 5.1L6.6 5.22L6.96 5.64L7.02 5.82V6.6L6.84 6.96L6.78 7.14L6.54 7.26L6.42 7.32L3.54 7.38L3.06 7.5L2.7 7.74L2.4 8.22V8.88L2.7 9.36L3.18 9.66L3.96 9.78L4.44 10.08L4.68 10.5L4.74 12.06L6.3 12.12L6.78 12.42L7.02 12.9V13.62L6.84 13.98L6.78 14.16L6.54 14.28L6.24 14.4L3.54 14.46L3.06 14.58L2.58 14.88L2.4 15.24V15.9L2.7 16.38L3.18 16.68L3.96 16.8L4.44 17.1L4.68 17.58L4.74 19.08L6.3 19.14L6.78 19.44L7.02 19.92V20.64L6.84 21L6.54 21.3L6.24 21.42L3.54 21.48L3.06 21.6L2.7 21.84L2.4 22.32V22.92L2.7 23.4L3.18 23.7L4.08 23.88L4.44 24.12L4.68 24.6L4.74 26.52L4.92 27.18L5.28 27.48L5.52 27.6H22.86V2.34H5.88ZM25.26 4.5V9.84H27.06L27.48 9.66L27.6 9.48V4.86L27.3 4.56L27.06 4.5H25.26ZM25.26 12.24V17.58H27.06L27.48 17.4L27.6 17.22V12.54L27.48 12.36L27.06 12.24H25.26Z" fill="#2E2E36"/>
<path d="M10.3799 9.05957H11.2799L11.7599 9.29957L12.3599 9.89957L12.4199 10.1396H12.5399L13.0199 10.9796L13.0799 11.2196V12.0596L12.8399 12.5396L12.1199 13.3796L11.7599 13.7396L11.8199 14.0396L12.3599 14.8796L12.4199 15.0596L12.7199 15.3596L13.4399 16.1996L13.9199 16.6796L14.5799 17.2196L14.8799 17.4596V17.5796L15.2399 17.6996L16.0199 18.1796L16.2599 18.1196L16.7399 17.6396L17.5199 17.0396L17.8799 16.8596H18.7199L19.3199 17.0996L19.8599 17.4596L20.5799 18.1196L20.8199 18.4796L20.8799 18.6596V19.5596L20.7599 19.8596H20.6399L20.5199 20.0996L20.0399 20.5196L19.3799 20.8796L18.6599 21.0596H17.0999L15.9599 20.8196L15.0599 20.4596L14.0399 19.9196L13.6199 19.7396L12.6599 19.0196L11.6399 18.0596L10.7399 17.0996L10.1399 16.1996L9.65988 15.2396L9.29988 14.5196L8.93988 13.2596L8.87988 12.8996V11.2796L9.11988 10.4396L9.59988 9.65957L10.0199 9.23957L10.3799 9.05957Z" fill="#2E2E36"/>
</g>
<defs>
<clipPath id="clip0_4001_34629">
<rect width="30" height="30" fill="white"/>
</clipPath>
</defs>
</svg>
