<svg width="482" height="361" viewBox="0 0 482 361" fill="none" xmlns="http://www.w3.org/2000/svg">
<path d="M65.1723 125.914C65.3378 124.822 65.3157 123.741 65.1281 122.681L67.4122 121.655L65.5585 117.528L63.3737 118.51C62.6896 117.562 61.84 116.712 60.8359 116.039L61.7407 113.667L57.5147 112.056L56.621 114.395C55.4073 114.218 54.1935 114.262 53.035 114.505L51.9978 112.188L47.8711 114.042L48.9303 116.414C48.0918 117.054 47.3635 117.837 46.7567 118.731L44.3844 117.826L42.7734 122.063L45.1126 122.946C44.9581 123.95 44.9692 124.954 45.1126 125.936L42.5527 127.084L44.4064 131.211L46.7677 130.151C47.4739 131.188 48.3676 132.093 49.4379 132.821L48.5331 135.194L52.7701 136.805L53.6639 134.466C54.9549 134.653 56.2569 134.598 57.4927 134.3L58.5188 136.573L62.6455 134.719L61.5532 132.292C62.3035 131.674 62.9765 130.957 63.5393 130.129L65.9115 131.034L67.5225 126.808L65.1833 125.914H65.1723ZM59.9643 126.289C58.9491 128.971 55.9369 130.317 53.2556 129.302C50.5744 128.287 49.2283 125.274 50.2434 122.593C51.2695 119.912 54.2708 118.566 56.952 119.581C59.6332 120.596 60.9794 123.608 59.9643 126.289Z" fill="#F7F7F8"/>
<path d="M444.59 184.248L434.439 184.413L428.833 192.876L425.534 183.277L415.758 180.552L423.868 174.45L423.438 164.31L431.746 170.135L441.258 166.594L438.279 176.292L444.59 184.248Z" fill="#F7F7F8"/>
<path d="M147.835 187.556L141.645 187.656L138.214 192.82L136.194 186.961L130.225 185.294L135.179 181.565L134.915 175.375L139.99 178.939L145.805 176.776L143.984 182.702L147.835 187.556Z" fill="#F7F7F8"/>
<path d="M144.245 290.865C145.271 283.926 145.155 276.98 143.975 270.28L158.563 263.734L146.743 237.404L132.788 243.665C128.432 237.597 122.997 232.231 116.621 227.921L122.372 212.802L95.4105 202.548L89.7437 217.428C82.0106 216.279 74.2776 216.565 66.8683 218.145L60.23 203.342L33.916 215.161L40.6931 230.273C35.3809 234.374 30.6779 239.332 26.8075 245.045L11.6883 239.293L1.43405 266.263L16.3142 271.922C15.3582 278.337 15.3967 284.751 16.3297 290.965L0 298.305L11.8193 324.619L26.9 317.85C31.3872 324.442 37.1311 330.255 43.9312 334.866L38.1796 349.985L65.149 360.239L70.8158 345.359C79.0731 346.585 87.3382 346.176 95.1869 344.303L101.702 358.813L128.031 346.994L121.092 331.543C125.896 327.634 130.182 323.008 133.752 317.734L148.871 323.486L159.125 296.524L144.245 290.858V290.865ZM111.015 293.278C104.516 310.379 85.3799 318.968 68.2792 312.461C51.1786 305.961 42.5897 286.825 49.0892 269.725C55.5964 252.624 74.7325 244.035 91.8331 250.542C108.934 257.042 117.523 276.178 111.015 293.278Z" fill="#F7F7F8"/>
<path d="M327.238 96.8952C328.363 89.2822 328.231 81.6581 326.94 74.3099L342.938 67.1271L329.974 38.2417L314.66 45.1155C309.882 38.4624 303.924 32.5706 296.918 27.8372L303.229 11.2541L273.648 0L267.437 16.3294C258.952 15.0716 250.467 15.3805 242.336 17.1238L235.054 0.88267L206.179 13.8469L213.616 30.4191C207.79 34.9207 202.626 40.3601 198.379 46.6271L181.795 40.316L170.541 69.9076L186.871 76.1194C185.823 83.1587 185.867 90.198 186.893 97.0166L168.975 105.071L181.939 133.945L198.489 126.52C203.41 133.747 209.71 140.135 217.179 145.188L210.868 161.772L240.46 173.026L246.672 156.696C255.73 158.042 264.8 157.59 273.417 155.538L280.566 171.459L309.452 158.495L301.839 141.536C307.113 137.244 311.813 132.169 315.73 126.387L332.313 132.699L343.567 103.118L327.238 96.9063V96.8952ZM290.783 99.5432C283.656 118.311 262.659 127.734 243.891 120.595C225.124 113.467 215.701 92.4708 222.829 73.703C229.967 54.9352 250.964 45.5127 269.732 52.6513C288.499 59.7789 297.922 80.7754 290.783 99.5432Z" fill="#F7F7F8"/>
<path d="M405.254 276.663C406.092 271.025 405.993 265.386 405.033 259.947L416.872 254.629L407.273 233.246L395.942 238.333C392.4 233.401 387.998 229.043 382.812 225.545L387.479 213.265L365.589 204.935L360.988 217.016C354.71 216.078 348.432 216.321 342.408 217.601L337.012 205.586L315.641 215.185L321.146 227.454C316.832 230.786 313.015 234.813 309.87 239.447L297.59 234.78L289.26 256.681L301.341 261.271C300.569 266.479 300.602 271.687 301.352 276.74L288.09 282.698L297.689 304.07L309.936 298.575C313.577 303.926 318.245 308.648 323.772 312.389L319.105 324.669L341.006 332.999L345.607 320.918C352.316 321.911 359.024 321.58 365.401 320.057L370.697 331.841L392.08 322.242L386.442 309.697C390.348 306.519 393.823 302.768 396.725 298.487L409.005 303.154L417.335 281.264L405.243 276.663H405.254ZM378.266 278.627C372.992 292.518 357.446 299.491 343.566 294.206C329.675 288.932 322.702 273.386 327.976 259.506C333.261 245.615 348.796 238.642 362.687 243.927C376.578 249.201 383.551 264.747 378.266 278.627Z" fill="#F7F7F8"/>
<path d="M420.558 144.308C453.78 144.308 480.711 117.376 480.711 84.1538C480.711 50.9318 453.78 24 420.558 24C387.336 24 360.404 50.9318 360.404 84.1538C360.404 117.376 387.336 144.308 420.558 144.308Z" stroke="#2E2E36" stroke-width="1.89058" stroke-miterlimit="10"/>
<mask id="mask0_4001_31481" style="mask-type:alpha" maskUnits="userSpaceOnUse" x="383" y="46" width="74" height="75">
<rect x="383.013" y="46.6113" width="73.7485" height="73.7485" rx="20.0335" fill="#1A2DD8"/>
</mask>
<g mask="url(#mask0_4001_31481)">
<rect x="383.013" y="46.6113" width="73.7485" height="73.7485" rx="20.0335" fill="#FDD800"/>
<path d="M496.743 143.133C502.121 148.092 506.703 153.951 512.632 158.234C518.561 162.517 526.469 165.067 533.237 162.295C539.129 159.883 542.92 153.925 544.503 147.75C548.86 130.858 536.878 111.573 519.814 107.973C513.184 106.574 506.016 107.221 499.931 104.261C492.194 100.501 487.761 91.6517 479.824 88.3388C472.05 85.0913 463.02 88.0773 455.915 92.6071C450.106 96.3087 444.837 101.198 441.991 107.468C440.037 111.769 439.38 117.04 441.809 121.09C445.12 126.612 452.578 127.771 459.008 127.538C474.403 126.975 485.27 132.555 496.743 143.133Z" stroke="#FDD800" stroke-width="0.375629" stroke-miterlimit="10"/>
<path d="M451.372 90.9016C445.342 94.7268 439.946 99.8814 437.074 106.409C435.106 110.885 434.489 116.308 436.925 120.558C440.338 126.523 447.934 128.277 454.673 128.517C458.894 128.649 463.094 129.184 467.214 130.116C469.174 130.566 471.084 131.105 472.943 131.732C480.971 134.417 487.779 139.335 494.873 145.99C497.28 148.246 499.626 150.651 502.004 152.936C505.272 156.096 509.091 159.285 512.686 160.927C513.256 161.189 513.804 161.429 514.36 161.654C515.162 161.974 515.979 162.257 516.861 162.544C519.451 163.403 522.084 164.131 524.747 164.723C529.388 165.693 534.311 165.548 538.432 163.307C544.328 160.106 547.778 153.713 548.867 147.163C549.593 142.711 549.369 138.155 548.21 133.795C547.022 129.284 544.891 125.019 542.208 121.012C537.096 113.384 529.791 107.067 521 104.727C514.204 102.911 506.75 103.144 500.305 100.03C492.088 96.0708 487.038 87.2545 478.571 84.7734C475.281 83.8035 471.872 84.0288 468.372 84.6063C462.523 85.5762 456.485 87.6759 451.372 90.9016Z" stroke="#FDD800" stroke-width="0.375629" stroke-miterlimit="10"/>
<path d="M446.82 89.1984C440.557 93.1362 435.042 98.5633 432.151 105.349C430.169 110.002 429.584 115.578 432.028 120.028C435.546 126.436 443.283 128.787 450.331 129.499C454.782 129.938 459.197 130.697 463.54 131.769C465.629 132.287 467.668 132.874 469.658 133.531C478.393 136.361 485.503 141.726 493.018 148.842C495.781 151.469 498.559 154.258 501.369 156.834C505.189 160.318 510.083 163.885 514.233 164.768C514.887 164.906 515.493 165.011 516.103 165.091C516.978 165.2 517.857 165.269 518.844 165.374C521.477 165.647 524.755 166.308 527.994 166.827C533.367 167.659 539.126 167.314 543.639 164.328C549.554 160.416 552.647 153.521 553.246 146.586C553.631 141.874 553.043 137.134 551.518 132.659C549.949 128.009 547.382 123.723 544.427 119.502C538.796 111.455 531.356 104.415 522.166 101.495C515.184 99.268 507.44 99.0755 500.607 95.8061C491.911 91.6468 486.181 82.9068 477.246 81.1994C473.568 80.4983 469.879 81.2721 465.991 82.133C459.524 83.5897 452.607 85.5549 446.82 89.1984Z" stroke="#FDD800" stroke-width="0.375629" stroke-miterlimit="10"/>
<path d="M442.269 87.4919C435.781 91.5567 430.146 97.2599 427.231 104.293C425.234 109.12 424.689 114.853 427.136 119.499C430.767 126.353 438.624 129.307 445.995 130.484C450.668 131.229 455.301 132.211 459.875 133.426C462.083 134.012 464.249 134.646 466.374 135.326C475.814 138.301 483.232 144.121 491.129 151.705C494.252 154.706 497.454 157.881 500.707 160.732C505.064 164.547 511.059 168.495 515.753 168.597C516.441 168.612 517.128 168.585 517.812 168.517C518.763 168.423 519.704 168.277 520.797 168.201C523.701 167.987 527.503 168.481 531.213 168.906C537.317 169.603 543.921 169.084 548.816 165.32C554.77 160.754 557.493 153.311 557.595 145.98C557.645 141.014 556.699 136.088 554.814 131.494C552.857 126.709 549.858 122.412 546.63 117.959C540.479 109.498 532.902 101.739 523.316 98.2335C516.185 95.6253 508.15 94.9968 500.943 91.5749C491.768 87.2158 485.331 78.6029 475.956 77.6257C471.879 77.2007 467.928 78.5157 463.669 79.66C456.528 81.607 448.743 83.456 442.269 87.4919Z" stroke="#FDD800" stroke-width="0.375629" stroke-miterlimit="10"/>
<path d="M437.719 85.7854C431.002 89.9702 425.244 95.9313 422.31 103.222C420.295 108.228 419.769 114.12 422.245 118.962C425.959 126.264 433.969 129.78 441.655 131.455C446.626 132.544 451.491 133.736 456.207 135.069C458.538 135.728 460.838 136.408 463.106 137.11C473.272 140.231 480.966 146.508 489.269 154.547C492.751 157.922 496.375 161.489 500.075 164.613C504.987 168.758 512.056 173.091 517.303 172.409C518.064 172.307 518.815 172.146 519.55 171.925C520.578 171.624 521.58 171.264 522.775 171.006C525.973 170.309 530.279 170.643 534.459 170.981C541.295 171.548 548.742 170.876 554.021 166.313C560.03 161.122 562.372 153.098 561.969 145.375C561.687 140.155 560.385 135.042 558.135 130.325C555.797 125.406 552.362 121.073 548.858 116.412C542.192 107.541 534.477 99.0699 524.496 94.9795C517.198 91.9827 508.883 90.9147 501.295 87.3511C491.64 82.7958 484.477 74.35 474.677 74.0594C470.193 73.9286 465.985 75.7558 461.345 77.1907C453.521 79.6027 444.876 81.3282 437.719 85.7854Z" stroke="#FDD800" stroke-width="0.375629" stroke-miterlimit="10"/>
<path d="M433.17 84.0813C426.224 88.3896 420.346 94.6159 417.386 102.172C415.36 107.352 414.874 113.4 417.35 118.438C421.162 126.19 429.31 130.288 437.32 132.442C442.464 133.83 447.569 135.254 452.544 136.729C454.998 137.455 457.419 138.182 459.805 138.908C470.672 142.178 478.685 148.912 487.399 157.416C491.241 161.162 495.289 165.121 499.432 168.518C504.878 172.997 513.04 177.719 518.839 176.248C519.679 176.029 520.497 175.732 521.282 175.361C522.406 174.788 523.563 174.281 524.746 173.843C528.224 172.659 533.049 172.815 537.697 173.084C545.264 173.52 553.571 172.72 559.213 167.333C565.295 161.521 567.234 152.908 566.337 144.811C565.719 139.34 564.06 134.038 561.45 129.191C558.723 124.142 554.856 119.783 551.08 114.908C543.895 105.623 536.041 96.4467 525.664 91.7425C518.199 88.3605 509.58 86.8494 501.632 83.1187C491.48 78.3672 483.58 70.1176 473.37 70.4845C468.476 70.6589 464.013 72.9946 458.996 74.7128C450.539 77.6153 441.008 79.2136 433.17 84.0813Z" stroke="#FDD800" stroke-width="0.375629" stroke-miterlimit="10"/>
<path d="M428.616 82.3646C421.449 86.8 415.444 93.2878 412.463 101.105C410.422 106.46 409.968 112.664 412.463 117.899C416.366 126.101 424.659 130.773 432.98 133.417C438.299 135.106 443.64 136.759 448.876 138.376C451.454 139.168 454.006 139.949 456.526 140.701C468.101 144.112 476.394 151.304 485.514 160.266C489.708 164.389 494.181 168.737 498.771 172.41C504.776 177.219 514.02 182.33 520.359 180.071C521.279 179.733 522.161 179.301 522.992 178.781C524.178 177.991 525.416 177.282 526.699 176.66C530.457 174.992 535.798 174.982 540.913 175.17C549.213 175.472 558.396 174.542 564.39 168.334C570.563 161.948 572.088 152.714 570.686 144.202C569.736 138.484 567.72 132.996 564.742 128.023C561.642 122.846 557.328 118.465 553.291 113.373C545.586 103.677 537.591 93.8 526.826 88.4928C519.201 84.7258 510.28 82.7678 501.962 78.8846C491.346 73.9333 482.719 65.9234 472.088 66.9151C466.783 67.4092 462.074 70.2535 456.671 72.2442C447.529 75.6479 437.141 77.1046 428.616 82.3646Z" stroke="#FDD800" stroke-width="0.375629" stroke-miterlimit="10"/>
<path d="M424.064 80.6724C416.668 85.235 410.539 91.9844 407.54 100.056C405.482 105.588 405.057 111.953 407.562 117.38C411.556 126.033 419.998 131.278 428.621 134.41C434.114 136.4 439.695 138.282 445.188 140.04C447.89 140.901 450.573 141.729 453.22 142.507C465.506 146.063 474.093 153.72 483.62 163.136C488.173 167.633 493.06 172.367 498.104 176.319C504.639 181.459 514.972 186.962 521.871 183.911C522.873 183.452 523.822 182.885 524.699 182.218C525.945 181.299 527.132 180.297 528.642 179.497C532.683 177.343 538.54 177.165 544.128 177.274C553.158 177.445 563.229 176.402 569.562 169.355C575.825 162.388 576.932 152.522 575.008 143.625C573.725 137.662 571.354 131.986 568.015 126.883C564.544 121.561 559.824 117.155 555.496 111.844C547.272 101.734 539.135 91.1634 527.978 85.2459C520.168 81.1047 510.975 78.7072 502.283 74.6568C491.191 69.5058 481.823 61.7502 470.782 63.3449C465.067 64.1695 460.107 67.5006 454.32 69.7746C444.527 73.647 433.272 74.9947 424.064 80.6724Z" stroke="#FDD800" stroke-width="0.375629" stroke-miterlimit="10"/>
<path d="M419.518 78.9674C411.893 83.6535 405.645 90.6644 402.62 98.9976C400.551 104.704 400.151 111.229 402.675 116.848C406.76 125.955 415.346 131.771 424.296 135.375C429.968 137.667 435.784 139.777 441.539 141.677C444.364 142.607 447.169 143.476 449.955 144.285C462.95 148.005 471.827 156.106 481.765 165.99C486.674 170.865 491.996 175.987 497.475 180.215C504.57 185.69 515.992 191.582 523.425 187.739C524.508 187.159 525.521 186.456 526.442 185.643C527.764 184.516 529.013 183.299 530.628 182.319C534.949 179.681 541.31 179.354 547.381 179.354C557.137 179.402 568.109 178.265 574.772 170.353C581.136 162.812 581.819 152.317 579.408 143.028C577.792 136.82 575.066 130.956 571.362 125.719C567.481 120.27 562.314 115.838 557.718 110.306C548.975 99.8004 540.693 88.5394 529.147 82.0007C521.159 77.4853 511.683 74.6192 502.624 70.4308C491.049 65.08 480.959 57.5932 469.493 59.7764C463.371 60.9316 458.165 64.7458 451.992 67.2995C441.532 71.6768 429.409 72.8828 419.518 78.9674Z" stroke="#FDD800" stroke-width="0.375629" stroke-miterlimit="10"/>
<path d="M414.957 77.2797C407.111 82.0929 400.735 89.369 397.692 97.9602C395.605 103.841 395.234 110.525 397.772 116.337C401.948 125.899 410.687 132.285 419.949 136.389C425.799 138.983 431.851 141.323 437.86 143.368C440.811 144.368 443.744 145.285 446.661 146.118C460.367 149.965 469.535 158.541 479.883 168.869C485.148 174.121 490.899 179.628 496.821 184.126C504.446 189.938 516.957 196.218 524.952 191.58C526.116 190.877 527.193 190.038 528.158 189.08C529.556 187.751 530.867 186.316 532.588 185.157C537.188 182.033 544.079 181.525 550.604 181.466C561.093 181.383 572.973 180.126 579.955 171.382C586.44 163.256 586.694 152.111 583.79 142.449C581.843 135.997 578.76 129.944 574.687 124.576C570.425 118.986 564.822 114.536 559.95 108.789C550.691 97.8548 542.26 85.9035 530.33 78.7509C522.175 73.8651 512.408 70.5413 502.979 66.2003C490.924 60.6497 480.105 53.4462 468.217 56.2034C461.682 57.7182 456.217 61.9937 449.671 64.8308C438.532 69.6912 425.544 70.7737 414.957 77.2797Z" stroke="#FDD800" stroke-width="0.375629" stroke-miterlimit="10"/>
<path d="M410.415 75.5572C402.343 80.4975 395.844 88.0316 392.776 96.8806C390.674 102.94 390.333 109.784 392.889 115.788C397.151 125.8 406.039 132.756 415.618 137.355C421.665 140.246 427.869 142.799 434.2 145.002C437.272 146.07 440.343 147.04 443.386 147.908C457.8 151.904 467.259 160.942 478.02 171.723C483.637 177.35 489.806 183.26 496.174 188.026C504.344 194.18 517.959 200.842 526.484 195.411C527.732 194.584 528.874 193.608 529.886 192.505C531.357 190.969 532.729 189.323 534.552 187.979C539.435 184.376 546.842 183.693 553.839 183.558C565.058 183.344 577.853 181.989 585.147 172.388C591.744 163.702 591.556 151.94 588.128 141.874C585.856 135.172 582.42 128.923 577.98 123.413C573.329 117.688 567.295 113.213 562.15 107.248C552.372 95.8998 543.792 83.2729 531.477 75.4918C523.155 70.2463 513.097 66.4684 503.294 61.9713C490.761 56.2099 479.222 49.308 466.906 52.6355C459.982 54.5026 454.246 59.2395 447.3 62.3599C435.533 67.7071 421.677 68.6661 410.415 75.5572Z" stroke="#FDD800" stroke-width="0.375629" stroke-miterlimit="10"/>
<path d="M405.881 73.855C397.584 78.9188 390.958 86.718 387.868 95.8249C385.755 102.058 385.436 109.066 388.01 115.259C392.367 125.729 401.404 133.248 411.294 138.337C417.518 141.532 423.947 144.311 430.538 146.656C433.733 147.793 436.931 148.81 440.105 149.689C455.231 153.83 464.979 163.333 476.151 174.565C482.124 180.574 488.718 186.869 495.54 191.911C504.254 198.399 518.948 205.45 528.032 199.227C529.359 198.276 530.564 197.167 531.623 195.925C533.17 194.178 534.604 192.318 536.532 190.796C541.695 186.705 549.603 185.87 557.082 185.641C569.038 185.321 582.756 183.847 590.348 173.388C597.072 164.132 596.436 151.731 592.501 141.269C589.895 134.334 586.103 127.906 581.292 122.274C576.26 116.415 569.79 111.914 564.373 105.731C554.072 93.9723 545.347 80.6661 532.647 72.2602C524.14 66.6333 513.81 62.3941 503.637 57.7298C490.62 51.7796 478.384 45.1646 465.618 49.0515C458.299 51.2783 452.293 56.4729 444.985 59.8767C432.534 65.7215 417.815 66.557 405.881 73.855Z" stroke="#FDD800" stroke-width="0.375629" stroke-miterlimit="10"/>
<path d="M401.314 72.151C392.793 77.342 386.065 85.4027 382.935 94.764C380.804 101.176 380.51 108.343 383.106 114.743C387.539 125.667 396.74 133.749 406.942 139.332C413.349 142.827 420.01 145.833 426.868 148.327C430.187 149.529 433.516 150.597 436.82 151.502C452.654 155.784 462.693 165.752 474.276 177.438C480.604 183.821 487.622 190.516 494.891 195.823C504.15 202.641 519.944 210.085 529.562 203.088C530.975 202.001 532.246 200.74 533.345 199.336C534.968 197.385 536.464 195.307 538.497 193.603C543.944 189.03 552.382 188.027 560.315 187.719C573.001 187.268 587.648 185.699 595.534 174.383C602.385 164.554 601.303 151.498 596.859 140.666C593.925 133.489 589.778 126.871 584.598 121.104C579.177 115.114 572.275 110.591 566.585 104.187C555.765 92.0177 546.884 78.0322 533.806 68.9979C525.118 63.0041 514.509 58.3035 503.965 53.4976C490.48 47.3694 477.536 41.0559 464.338 45.4949C456.623 48.085 450.352 53.7337 442.662 57.4172C429.537 63.7379 413.95 64.4499 401.314 72.151Z" stroke="#FDD800" stroke-width="0.375629" stroke-miterlimit="10"/>
<path d="M396.763 70.4417C388.017 75.7635 381.151 84.0822 378.01 93.6904C375.868 100.276 375.596 107.603 378.21 114.182C382.73 125.592 392.083 134.223 402.612 140.3C409.196 144.092 416.086 147.325 423.21 149.963C426.652 151.234 430.109 152.35 433.543 153.28C450.089 157.708 460.411 168.141 472.393 180.277C479.077 187.041 486.524 194.11 494.236 199.701C504.039 206.857 520.915 214.692 531.089 206.882C532.587 205.686 533.929 204.305 535.083 202.774C536.778 200.616 538.35 198.324 540.471 196.442C546.196 191.382 555.154 190.212 563.559 189.824C576.993 189.242 592.558 187.582 600.738 175.402C607.721 165.006 606.185 151.329 601.236 140.09C597.974 132.672 593.47 125.866 587.918 119.965C582.109 113.837 574.778 109.292 568.816 102.674C557.477 90.0905 548.44 75.4111 534.988 65.7629C526.118 59.4022 515.229 54.2403 504.315 49.2818C490.34 42.9393 476.721 36.931 463.04 41.9222C454.936 44.8827 448.393 50.9782 440.318 54.945C426.536 61.7489 410.085 62.3374 396.763 70.4417Z" stroke="#FDD800" stroke-width="0.375629" stroke-miterlimit="10"/>
<path d="M392.213 68.7392C383.253 74.1881 376.238 82.7683 373.09 92.649C370.93 99.4093 370.683 106.9 373.319 113.671C377.919 125.499 387.435 134.711 398.259 141.279C405.019 145.368 412.139 148.827 419.532 151.613C423.097 152.958 426.684 154.116 430.25 155.072C447.503 159.645 458.12 170.543 470.53 183.134C477.563 190.272 485.438 197.729 493.597 203.596C503.948 211.083 521.917 219.311 532.628 210.709C534.202 209.387 535.602 207.871 536.796 206.197C538.568 203.832 540.187 201.329 542.427 199.266C548.436 193.719 557.909 192.364 566.779 191.914C580.939 191.187 597.452 189.451 605.919 176.41C613.036 165.443 611.053 151.127 605.585 139.499C601.999 131.834 597.142 124.833 591.218 118.793C585.028 112.552 577.254 107.982 571.02 101.146C559.165 88.1482 549.961 72.8113 536.142 62.5165C527.091 55.7926 515.926 50.1657 504.638 45.0546C490.184 38.5159 475.86 32.8164 461.736 38.3524C453.247 41.6799 446.425 48.2186 437.973 52.476C423.536 59.7667 406.243 60.2571 392.213 68.7392Z" stroke="#FDD800" stroke-width="0.375629" stroke-miterlimit="10"/>
<path d="M387.659 67.0355C378.473 72.626 371.342 81.4533 368.165 91.5882C365.987 98.5229 365.769 106.177 368.423 113.14C373.107 125.426 382.783 135.201 393.919 142.263C400.852 146.649 408.203 150.337 415.863 153.273C419.497 154.668 423.202 155.869 426.963 156.87C444.928 161.592 455.831 172.951 468.655 185.996C476.044 193.512 484.348 201.355 492.949 207.497C503.841 215.318 522.903 223.935 534.162 214.541C535.817 213.094 537.281 211.443 538.519 209.626C540.367 207.058 542.048 204.337 544.394 202.092C550.682 196.062 560.671 194.558 570.013 194.01C584.899 193.167 602.36 191.329 611.11 177.419C618.372 165.882 615.924 150.93 609.948 138.914C606.034 131.015 600.821 123.831 594.528 117.659C587.953 111.266 579.747 106.671 573.237 99.6163C560.863 86.2083 551.51 70.1922 537.292 59.2689C528.059 52.1817 516.596 46.0899 504.96 40.8262C490.041 34.0841 475.027 28.7006 460.442 34.7779C451.569 38.4795 444.467 45.465 435.637 49.9985C420.536 57.7796 402.368 58.1501 387.659 67.0355Z" stroke="#FDD800" stroke-width="0.375629" stroke-miterlimit="10"/>
<path d="M383.111 65.328C373.7 71.0457 366.446 80.1344 363.247 90.531C361.069 97.64 360.855 105.457 363.53 112.61C368.298 125.349 378.137 135.688 389.582 143.244C396.686 147.925 404.266 151.841 412.194 154.926C415.947 156.388 419.778 157.637 423.671 158.668C442.348 163.532 453.538 175.356 466.773 188.851C474.517 196.748 483.245 204.976 492.293 211.395C503.734 219.547 523.903 228.577 535.689 218.366C537.426 216.796 538.954 215.01 540.238 213.051C542.159 210.276 543.902 207.341 546.349 204.918C552.921 198.401 563.414 196.73 573.235 196.102C588.848 195.128 607.267 193.196 616.289 178.429C623.689 166.322 620.791 150.727 614.303 138.325C610.066 130.188 604.501 122.815 597.837 116.511C590.877 109.973 582.225 105.363 575.457 98.094C562.564 84.272 553.051 67.5802 538.474 56.0285C529.059 48.5816 517.346 42.0175 505.31 36.594C489.897 29.6558 474.201 24.5847 459.151 31.2142C449.897 35.2899 442.519 42.7186 433.3 47.5318C417.539 55.796 398.506 56.0394 383.111 65.328Z" stroke="#FDD800" stroke-width="0.375629" stroke-miterlimit="10"/>
<path d="M378.557 63.6254C368.925 69.4666 361.543 78.8206 358.323 89.4713C356.119 96.7584 355.941 104.728 358.638 112.081C363.486 125.278 373.485 136.176 385.241 144.229C392.517 149.204 400.327 153.347 408.526 156.58C412.404 158.111 416.37 159.409 420.402 160.467C439.791 165.476 451.242 177.791 464.916 191.707C472.998 199.997 482.173 208.595 491.664 215.29C503.646 223.776 524.908 233.195 537.238 222.192C539.122 220.525 540.596 218.56 541.98 216.474C543.977 213.492 545.781 210.343 548.334 207.738C555.185 200.742 566.208 198.9 576.487 198.192C592.826 197.102 612.2 195.071 621.509 179.433C629.05 166.755 625.692 150.525 618.692 137.73C614.127 129.353 608.205 121.791 601.166 115.354C593.821 108.688 584.751 104.049 577.692 96.5586C564.28 82.3224 554.604 64.9549 539.656 52.7748C530.053 44.9501 518.046 37.9429 505.646 32.3704C489.751 25.2287 473.376 20.4737 457.858 27.6444C448.225 32.098 440.56 39.9662 430.964 45.0809C414.538 53.8101 394.623 53.9336 378.557 63.6254Z" stroke="#FDD800" stroke-width="0.375629" stroke-miterlimit="10"/>
<path d="M374.008 61.9197C364.147 67.8881 356.642 77.4999 353.399 88.4123C351.181 95.8736 351.025 104.032 353.763 111.548C358.679 125.2 368.845 136.661 380.903 145.208C388.352 150.477 396.395 154.849 404.866 158.235C408.862 159.831 412.955 161.174 417.12 162.256C437.217 167.414 448.959 180.19 463.046 194.564C471.481 203.232 481.08 212.219 491.003 219.19C503.548 228.006 525.888 237.814 538.767 226.023C540.731 224.235 542.263 222.11 543.697 219.902C545.771 216.716 547.637 213.363 550.295 210.566C557.426 203.083 568.964 201.074 579.704 200.286C596.769 199.054 617.101 196.947 626.676 180.444C634.359 167.193 630.543 150.323 623.045 137.144C618.154 128.527 611.876 120.776 604.463 114.204C596.733 107.404 587.231 102.739 579.897 95.0309C565.969 80.3842 556.129 62.3374 540.811 49.5289C531.008 41.3483 518.761 33.8651 505.988 28.1401C489.617 20.7986 472.563 16.3596 456.573 24.0716C446.562 28.903 438.615 37.2107 428.637 42.5979C411.54 51.8247 390.775 51.8211 374.008 61.9197Z" stroke="#FDD800" stroke-width="0.375629" stroke-miterlimit="10"/>
<path d="M369.457 60.2078C359.344 66.3416 351.867 76.0145 348.478 87.3506C346.245 94.9791 346.111 103.287 348.841 111.013C353.848 125.122 364.178 137.143 376.551 146.184C384.167 151.745 392.439 156.346 401.179 159.883C405.295 161.548 409.516 162.939 413.814 164.049C434.623 169.349 446.655 182.576 461.153 197.418C469.943 206.464 479.971 215.836 490.352 223.083C503.423 232.23 526.867 242.43 540.286 229.847C542.334 227.936 543.917 225.677 545.413 223.308C547.555 219.915 549.487 216.337 552.246 213.369C559.66 205.403 571.715 203.231 582.934 202.359C600.725 200.997 622.023 198.803 631.863 181.431C639.691 167.628 635.435 150.086 627.39 136.536C622.178 127.681 615.542 119.747 607.751 113.051C599.636 106.12 589.698 101.427 582.092 93.5042C567.645 78.4471 557.642 59.721 541.957 46.2804C531.983 37.7365 519.446 29.7883 506.302 23.9108C489.462 16.3731 471.737 12.2574 455.257 20.5034C444.869 25.7162 436.638 34.4599 426.275 40.1195C408.539 49.8403 386.907 49.7168 369.457 60.2078Z" stroke="#FDD800" stroke-width="0.375629" stroke-miterlimit="10"/>
<path d="M364.906 58.5096C354.574 64.7829 346.959 74.6934 343.556 86.2954C341.309 94.1092 341.196 102.573 343.959 110.489C349.043 125.055 359.572 137.613 372.225 147.178C380.015 153.026 388.518 157.858 397.528 161.556C401.765 163.289 406.115 164.728 410.549 165.864C432.065 171.313 444.391 185.008 459.296 200.297C468.442 209.717 478.902 219.474 489.722 226.997C503.341 236.482 527.871 247.067 541.839 233.696C543.966 231.665 545.615 229.264 547.154 226.772C549.373 223.168 551.362 219.376 554.231 216.237C561.924 207.784 574.498 205.445 586.182 204.493C604.699 203 626.963 200.719 637.068 182.483C645.055 168.087 640.335 149.928 631.763 135.986C626.229 126.882 619.238 118.751 611.067 111.916C602.568 104.847 592.187 100.136 584.319 91.995C569.353 76.5237 559.183 57.122 543.131 43.0529C532.177 33.5232 519.887 25.649 506.652 19.6807C489.323 11.9433 470.922 8.13629 453.98 16.9345C443.219 22.5214 434.697 31.7046 423.957 37.6403C405.542 47.8552 383.045 47.6045 364.906 58.5096Z" stroke="#FDD800" stroke-width="0.375629" stroke-miterlimit="10"/>
<path d="M360.354 56.8073C349.802 63.2193 342.048 73.3695 338.635 85.2397C336.369 93.2315 336.278 101.852 339.067 109.941C344.23 124.962 354.904 138.091 367.881 148.138C375.839 154.275 384.573 159.333 393.856 163.181C398.211 164.98 402.69 166.466 407.257 167.627C429.485 173.221 442.113 187.378 457.416 203.121C466.918 212.929 477.8 223.064 489.07 230.864C503.23 240.672 528.856 251.653 543.369 237.493C545.58 235.343 547.286 232.8 548.873 230.166C551.168 226.359 553.23 222.352 556.193 219.021C564.18 210.085 577.251 207.579 589.411 206.547C608.68 204.923 631.891 202.551 642.257 183.454C650.379 168.485 645.187 149.671 636.125 135.362C630.267 126.022 622.923 117.701 614.384 110.73C605.499 103.544 594.679 98.8111 586.543 90.4489C571.054 74.5635 560.72 54.5043 544.302 39.7922C533.958 30.5218 520.872 21.6292 506.988 15.4538C489.175 7.53469 470.11 4.02559 452.686 13.365C441.553 19.3334 432.745 28.9671 421.62 35.1788C402.54 45.8696 379.176 45.499 360.354 56.8073Z" stroke="#FDD800" stroke-width="0.375629" stroke-miterlimit="10"/>
<path d="M355.806 55.097C345.033 61.6503 337.14 72.0408 333.713 84.1796C331.436 92.3421 331.352 101.133 334.174 109.426C339.395 124.912 350.254 138.596 363.543 149.134C371.666 155.565 380.632 160.853 390.19 164.849C394.669 166.716 399.281 168.25 403.987 169.437C426.923 175.176 439.83 189.798 455.544 205.995C465.398 216.167 476.705 226.701 488.421 234.777C503.13 244.926 529.842 256.289 544.899 241.337C547.193 239.063 548.958 236.386 550.599 233.607C552.966 229.593 555.079 225.372 558.158 221.863C566.411 212.44 580.016 209.766 592.651 208.654C612.649 206.9 636.823 204.448 647.451 184.476C655.725 168.936 650.061 149.505 640.494 134.789C634.307 125.216 626.607 116.712 617.696 109.608C608.423 102.255 597.186 97.4967 588.762 88.902C572.754 72.6061 562.257 51.8749 545.469 36.5271C534.939 26.8934 521.578 17.5467 507.345 11.2078C489.024 3.08897 469.298 -0.0968277 451.394 9.79112C439.892 16.1409 430.789 26.1996 419.283 32.7056C399.543 43.8831 375.314 43.3855 355.806 55.097Z" stroke="#FDD800" stroke-width="0.375629" stroke-miterlimit="10"/>
<path d="M351.258 53.3937C340.268 60.0877 332.236 70.7156 328.794 83.1193C326.503 91.4743 326.448 100.411 329.288 108.911C334.592 124.836 345.612 139.09 359.209 150.115C367.497 156.837 376.693 162.354 386.524 166.502C391.118 168.432 395.851 170.011 400.684 171.225C424.331 177.106 437.533 192.188 453.668 208.844C463.878 219.378 475.613 230.312 487.769 238.664C503.018 249.144 530.827 260.895 546.432 245.155C548.806 242.761 550.629 239.943 552.321 237.022C554.765 232.801 556.939 228.365 560.12 224.671C568.656 214.765 582.78 211.924 595.873 210.733C616.605 208.847 641.744 206.308 652.633 185.472C661.057 169.354 654.92 149.291 644.845 134.186C638.338 124.367 630.285 115.667 620.998 108.424C611.343 100.955 599.674 96.1713 590.971 87.3731C574.447 70.6631 563.758 49.2816 546.628 33.28C535.899 23.2976 522.28 13.475 507.655 6.97991C488.894 -1.33876 468.496 -4.20125 450.106 6.22069C438.234 12.9519 428.837 23.4465 416.954 30.2358C396.548 41.8965 371.452 41.2753 351.258 53.3937Z" stroke="#FDD800" stroke-width="0.375629" stroke-miterlimit="10"/>
<path d="M382.852 168.158C387.569 170.16 392.436 171.789 397.408 173.03C421.763 179.06 435.255 194.6 451.801 211.71C462.37 222.636 474.526 233.945 487.129 242.587C502.93 253.401 531.824 265.541 547.97 249.009C553.975 242.863 556.535 234.075 562.094 227.526C570.91 217.137 585.549 214.125 599.128 212.85C620.59 210.838 646.692 208.211 657.846 186.507C666.418 169.818 659.81 149.12 649.23 133.623C642.397 123.568 633.989 114.68 624.33 107.301C614.287 99.6945 602.182 94.8886 593.21 85.8689C576.163 68.7375 565.311 46.6694 547.799 30.0539C522.885 6.39837 482.383 -16.8576 448.813 2.64952C436.57 9.76579 426.879 20.6927 414.614 27.7617C393.555 39.9091 367.584 39.1681 346.718 51.6897C327.838 63.0089 317.366 86.9841 324.403 108.358C333.088 134.807 356.826 157.17 382.852 168.158Z" stroke="#FDD800" stroke-width="0.375629" stroke-miterlimit="10"/>
</g>
<path d="M107.496 184.247C112.371 184.247 116.323 180.295 116.323 175.42C116.323 170.545 112.371 166.593 107.496 166.593C102.621 166.593 98.6689 170.545 98.6689 175.42C98.6689 180.295 102.621 184.247 107.496 184.247Z" fill="#F7F7F8"/>
<path d="M130.115 47.4332C133.466 47.4332 136.183 44.7162 136.183 41.3646C136.183 38.0129 133.466 35.2959 130.115 35.2959C126.763 35.2959 124.046 38.0129 124.046 41.3646C124.046 44.7162 126.763 47.4332 130.115 47.4332Z" fill="#F7F7F8"/>
<path d="M116.324 67.2939C121.199 67.2939 125.151 63.3419 125.151 58.4668C125.151 53.5917 121.199 49.6396 116.324 49.6396C111.449 49.6396 107.497 53.5917 107.497 58.4668C107.497 63.3419 111.449 67.2939 116.324 67.2939Z" fill="#F7F7F8"/>
<path d="M31.3642 112.53C36.2393 112.53 40.1914 108.578 40.1914 103.703C40.1914 98.828 36.2393 94.876 31.3642 94.876C26.4892 94.876 22.5371 98.828 22.5371 103.703C22.5371 108.578 26.4892 112.53 31.3642 112.53Z" fill="#F7F7F8"/>
<path d="M206.909 304.339C211.784 304.339 215.736 300.387 215.736 295.512C215.736 290.637 211.784 286.685 206.909 286.685C202.034 286.685 198.082 290.637 198.082 295.512C198.082 300.387 202.034 304.339 206.909 304.339Z" fill="#F7F7F8"/>
<path d="M454.652 249.488C454.818 248.395 454.796 247.314 454.608 246.255L456.892 245.228L455.038 241.102L452.854 242.084C452.17 241.135 451.32 240.285 450.316 239.612L451.221 237.24L446.995 235.629L446.101 237.968C444.887 237.792 443.674 237.836 442.515 238.078L441.478 235.761L437.351 237.615L438.41 239.987C437.572 240.627 436.844 241.411 436.237 242.304L433.864 241.4L432.253 245.637L434.593 246.519C434.438 247.523 434.449 248.528 434.593 249.51L432.033 250.657L433.886 254.784L436.248 253.725C436.954 254.762 437.848 255.667 438.918 256.395L438.013 258.767L442.25 260.378L443.144 258.039C444.435 258.226 445.737 258.171 446.973 257.873L447.999 260.146L452.125 258.293L451.033 255.865C451.783 255.247 452.456 254.53 453.019 253.702L455.392 254.607L457.002 250.381L454.663 249.488H454.652ZM449.444 249.863C448.429 252.544 445.417 253.89 442.736 252.875C440.054 251.86 438.708 248.848 439.723 246.166C440.749 243.485 443.751 242.139 446.432 243.154C449.113 244.169 450.459 247.181 449.444 249.863Z" fill="#F7F7F8"/>
<path d="M163.582 204.256H117.579V135.252C117.579 122.547 127.876 112.251 140.58 112.251C153.285 112.251 163.582 122.547 163.582 135.252V204.256Z" fill="#2E2E36"/>
<path d="M140.673 169.416H159.278V148.322H140.673V169.416Z" fill="#F2C6C2"/>
<path d="M159.28 148.335V160.445C157.467 160.513 153.326 160.486 148.902 158.659C143.909 156.602 141.514 153.49 140.675 152.272V148.348H159.28V148.335Z" fill="#EF8B8B"/>
<path d="M133.031 142.126C136.995 152.26 146.317 158.078 153.867 155.129C161.417 152.179 164.326 141.571 160.375 131.437C156.411 121.303 147.089 115.485 139.539 118.435C131.989 121.384 129.08 131.992 133.031 142.126Z" fill="#F2C6C2"/>
<path d="M124.939 146.902C122.206 143.925 121.746 139.879 123.938 137.863C126.13 135.847 130.121 136.646 132.854 139.622C135.588 142.599 136.048 146.645 133.856 148.661C131.664 150.677 127.672 149.879 124.939 146.902Z" fill="#F2C6C2"/>
<path d="M155.515 134.194C155.379 134.113 154.107 133.396 152.673 134.005C151.224 134.614 150.859 136.048 150.832 136.197" stroke="#2E2E36" stroke-width="0.205419" stroke-miterlimit="10"/>
<path d="M152.131 135.075C152.32 135.508 152.807 135.697 153.24 135.521C153.673 135.332 153.862 134.845 153.686 134.412C153.497 133.979 153.01 133.776 152.577 133.966C152.144 134.155 151.955 134.642 152.131 135.075Z" fill="#2E2E36"/>
<path d="M143.569 139.296C143.433 139.215 142.161 138.497 140.727 139.106C139.279 139.715 138.913 141.15 138.886 141.299" stroke="#2E2E36" stroke-width="0.205419" stroke-miterlimit="10"/>
<path d="M140.187 140.177C140.376 140.609 140.863 140.799 141.296 140.623C141.729 140.434 141.918 139.947 141.743 139.514C141.553 139.081 141.066 138.891 140.633 139.067C140.2 139.257 140.011 139.744 140.187 140.177Z" fill="#2E2E36"/>
<path d="M148.56 132.099L155.258 129.542C155.718 129.366 155.948 128.852 155.772 128.378C155.596 127.918 155.082 127.688 154.608 127.864L147.911 130.421C147.451 130.597 147.221 131.111 147.396 131.585C147.572 132.045 148.087 132.275 148.56 132.099Z" fill="#2E2E36"/>
<path d="M141.186 134.981L134.529 137.646C134.068 137.836 133.541 137.606 133.365 137.146C133.175 136.686 133.405 136.158 133.866 135.982L140.523 133.317C140.983 133.127 141.51 133.357 141.686 133.817C141.876 134.277 141.646 134.805 141.186 134.981Z" fill="#2E2E36"/>
<path d="M150.712 143.383C150.739 143.262 150.875 142.815 151.321 142.49C151.754 142.192 152.188 142.206 152.323 142.22" stroke="#2E2E36" stroke-width="0.205419" stroke-miterlimit="10"/>
<path d="M149.507 143.706C149.426 143.625 149.074 143.3 148.533 143.246C148.006 143.205 147.64 143.449 147.532 143.516" stroke="#2E2E36" stroke-width="0.205419" stroke-miterlimit="10"/>
<path d="M147.424 141.947C146.937 142.177 146.639 142.692 146.693 143.22C146.747 143.68 147.058 144.086 147.505 144.249" stroke="#2E2E36" stroke-width="0.205419" stroke-miterlimit="10"/>
<path d="M151.401 140.867C151.942 140.813 152.456 141.11 152.673 141.597C152.862 142.016 152.795 142.531 152.497 142.909" stroke="#2E2E36" stroke-width="0.205419" stroke-miterlimit="10"/>
<path d="M154.745 143.667C155.597 145.899 154.488 148.402 152.255 149.255C150.022 150.107 147.519 148.998 146.667 146.765C146.626 146.657 146.599 146.562 146.559 146.454L154.609 143.355C154.65 143.464 154.704 143.558 154.745 143.667Z" fill="white"/>
<path d="M126.928 134.833C123.951 132.574 123.369 128.325 125.629 125.348L133.152 115.43C135.412 112.453 139.661 111.871 142.637 114.131C145.614 116.391 146.196 120.639 143.936 123.616L136.413 133.534C134.154 136.511 129.905 137.093 126.928 134.833Z" fill="#2E2E36"/>
<path d="M65.676 243.466C60.6158 239.623 59.6281 232.412 63.4706 227.352L106.009 171.31C109.852 166.25 117.063 165.262 122.124 169.104C127.184 172.947 128.172 180.159 124.329 185.219L81.7904 241.261C77.9479 246.321 70.7363 247.309 65.676 243.466Z" fill="#FDD800"/>
<path d="M226.306 243.466C231.367 239.623 232.354 232.412 228.512 227.352L185.973 171.31C182.13 166.25 174.919 165.262 169.859 169.104C164.798 172.947 163.811 180.159 167.653 185.219L210.192 241.261C214.035 246.321 221.246 247.309 226.306 243.466Z" fill="#FDD800"/>
<path d="M270.953 169.104C265.893 165.262 258.681 166.25 254.839 171.31L212.3 227.352C208.458 232.412 209.445 239.623 214.506 243.466C219.566 247.309 226.777 246.321 230.62 241.261L273.159 185.219C277.001 180.159 276.014 172.947 270.953 169.104Z" fill="#FDD800"/>
<path d="M100.095 270.104L85.4037 280.254L62.0198 238.612C60.1857 235.355 61.2706 231.183 64.4472 229.298C67.6238 227.413 73.3585 225.376 77.9208 230.627L100.095 270.104Z" fill="#FDD800"/>
<path d="M119.148 168.225H175.677L188.828 261.623L104.076 261.082L119.148 168.225Z" fill="#FDD800"/>
<path d="M158.846 168.402H141.256V261.084H158.846V168.402Z" fill="white"/>
<path d="M104.4 287.128L97.0167 275.782C96.2042 274.533 96.5592 272.854 97.8074 272.041C99.0557 271.229 100.735 271.584 101.548 272.832L108.931 284.179C109.744 285.427 109.389 287.107 108.14 287.919C106.892 288.732 105.213 288.377 104.4 287.128Z" fill="#F2C6C2"/>
<path d="M99.4388 290.592L92.0552 279.246C91.2428 277.997 91.5978 276.318 92.846 275.505C94.0942 274.693 95.7738 275.048 96.5863 276.296L103.97 287.643C104.782 288.891 104.427 290.571 103.179 291.383C101.931 292.196 100.251 291.841 99.4388 290.592Z" fill="#F2C6C2"/>
<path d="M94.4768 294.056L87.0933 282.709C86.2808 281.461 86.6358 279.782 87.8841 278.969C89.1323 278.157 90.8119 278.512 91.6244 279.76L99.0079 291.107C99.8204 292.355 99.4654 294.034 98.2171 294.847C96.9689 295.659 95.2893 295.304 94.4768 294.056Z" fill="#F2C6C2"/>
<path d="M274.851 219.86L291.212 213.05L262.552 144.199L246.191 151.009L274.851 219.86Z" fill="#2E2E36"/>
<path d="M240.683 156.249L298.899 158.878L364.265 161.832L364.121 161.499L322.726 62.0585L322.591 61.7344L278.63 110.189L239.477 153.359L240.683 156.249Z" fill="#2E2E36"/>
<path d="M353.017 107.713C364.507 135.313 369.604 159.437 364.399 161.607C360.428 163.264 351.594 151.63 342.526 133.755C341.986 132.683 341.436 131.594 340.896 130.477C338.618 125.831 336.358 120.824 334.17 115.565C331.774 109.811 329.658 104.219 327.857 98.9243C327.695 98.447 327.533 97.9788 327.371 97.5105C320.896 78.1412 318.762 63.3462 322.788 61.6713C327.992 59.5012 341.527 80.1312 353.008 107.722L353.017 107.713Z" fill="#2E2E36"/>
<path d="M349.83 109.433C354.036 119.536 351.532 130.18 344.247 133.215C343.68 133.449 343.104 133.629 342.518 133.755C341.978 132.683 341.429 131.594 340.889 130.477C338.61 125.831 336.35 120.824 334.162 115.565C331.767 109.811 329.651 104.219 327.85 98.9241C327.687 98.4469 327.525 97.9786 327.363 97.5104C327.877 97.1682 328.426 96.88 329.011 96.6369C336.296 93.6023 345.616 99.3293 349.821 109.433H349.83Z" fill="#FDD800"/>
<path d="M267.395 157.402L251.574 163.988C245.647 166.455 238.838 163.642 236.374 157.723L235.322 155.195C232.855 149.268 235.668 142.459 241.587 139.995L257.407 133.41L267.395 157.402Z" fill="#FDD800"/>
<path d="M272.476 171.03L262.128 175.788C260.989 176.312 259.635 175.811 259.111 174.673C258.587 173.534 259.088 172.179 260.227 171.656L270.575 166.897C271.713 166.373 273.068 166.874 273.592 168.013C274.115 169.151 273.615 170.506 272.476 171.03Z" fill="#F2C6C2"/>
<path d="M274.753 175.582L264.404 180.341C263.266 180.865 261.911 180.364 261.387 179.225C260.864 178.087 261.365 176.732 262.503 176.209L272.851 171.45C273.99 170.926 275.344 171.427 275.868 172.566C276.392 173.704 275.891 175.059 274.753 175.582Z" fill="#F2C6C2"/>
<path d="M277.031 180.137L266.683 184.896C265.544 185.419 264.189 184.918 263.666 183.78C263.142 182.642 263.643 181.287 264.781 180.763L275.13 176.005C276.268 175.481 277.623 175.982 278.146 177.12C278.67 178.259 278.169 179.613 277.031 180.137Z" fill="#F2C6C2"/>
<path d="M40.7625 261.574C40.7625 265.32 39.169 268.703 36.618 271.065C35.4578 272.134 34.116 272.994 32.6273 273.581C32.229 273.742 31.8236 273.881 31.4112 273.993C30.279 274.322 29.0839 274.489 27.8469 274.489C26.6098 274.489 25.4217 274.315 24.2895 273.993C23.8772 273.881 23.4718 273.742 23.0734 273.581C21.6407 273.008 20.3268 272.183 19.1946 271.17C16.5737 268.807 14.9243 265.383 14.9243 261.574C14.9243 257.765 16.5737 254.347 19.1946 251.978C20.5434 250.762 22.1579 249.825 23.9261 249.259C24.3943 249.112 24.8696 248.987 25.3588 248.896C26.1625 248.742 26.9942 248.658 27.8399 248.658C28.6855 248.658 29.5172 248.735 30.314 248.896H30.321C30.8172 248.987 31.2994 249.112 31.7607 249.259C33.5848 249.839 35.2342 250.818 36.611 252.09C39.162 254.452 40.7555 257.821 40.7555 261.574H40.7625Z" fill="#FDD800"/>
<path d="M27.9584 255.794C27.9095 255.794 27.8675 255.794 27.8186 255.794C24.5197 255.766 21.3605 254.515 18.9282 252.264L19.4454 251.705C21.7379 253.823 24.7154 255.004 27.8396 255.032H27.9514C31.0616 255.032 34.0391 253.886 36.3455 251.81L36.8558 252.376C34.4095 254.585 31.2503 255.801 27.9514 255.801L27.9584 255.794Z" fill="#2E2E36"/>
<path d="M31.7684 249.258C31.3002 249.104 30.8249 248.986 30.3287 248.895C32.8168 250.963 34.578 256.072 34.578 262.02C34.578 267.066 33.313 271.504 31.412 273.999C31.8243 273.887 32.2297 273.747 32.6281 273.587C34.2914 270.875 35.3468 266.737 35.3468 262.02C35.3468 256.548 33.935 251.851 31.7754 249.265L31.7684 249.258ZM20.3555 262.013C20.3555 266.73 21.4108 270.868 23.0742 273.58C23.4726 273.74 23.8779 273.88 24.2903 273.992C22.3893 271.497 21.1243 267.059 21.1243 262.013C21.1243 256.065 22.8855 250.956 25.3666 248.888C24.8773 248.979 24.3951 249.111 23.9338 249.251C21.7742 251.837 20.3625 256.534 20.3625 262.006L20.3555 262.013Z" fill="#2E2E36"/>
<path d="M19.4542 271.457L18.937 270.898C21.3693 268.647 24.5284 267.396 27.8414 267.368C27.8693 267.368 27.9113 267.368 27.9602 267.368C31.2591 267.368 34.4253 268.584 36.8645 270.793L36.3543 271.359C34.0479 269.276 31.0704 268.137 27.9602 268.137H27.8623C24.7171 268.165 21.7397 269.346 19.4472 271.471L19.4542 271.457Z" fill="#2E2E36"/>
<path d="M40.7625 261.197H14.9243V261.959H40.7625V261.197Z" fill="#2E2E36"/>
<path d="M28.2242 248.658H27.4624V274.496H28.2242V248.658Z" fill="#2E2E36"/>
<path d="M28.3698 284.512C41.0109 284.512 51.2586 274.264 51.2586 261.623C51.2586 248.982 41.0109 238.734 28.3698 238.734C15.7286 238.734 5.48096 248.982 5.48096 261.623C5.48096 274.264 15.7286 284.512 28.3698 284.512Z" stroke="#2E2E36" stroke-width="0.821676" stroke-miterlimit="10"/>
<path d="M83.3085 312.666L64.1112 312.701C60.7339 312.708 58.0012 315.451 58.0075 318.828L58.0238 327.549C58.0301 330.927 60.7731 333.659 64.1504 333.653L83.3476 333.617C86.7249 333.611 89.4576 330.868 89.4513 327.491L89.435 318.769C89.4287 315.392 86.6858 312.659 83.3085 312.666Z" fill="#FDD800"/>
<path d="M73.8833 339.018L68.4193 329.595L79.3106 329.573L73.8833 339.018Z" fill="#FDD800"/>
<path d="M68.7867 323.013C68.7867 324.67 67.4471 326.013 65.7961 326.016C64.1385 326.016 62.7964 324.676 62.7934 323.025C62.7933 321.367 64.133 320.025 65.784 320.022C67.4416 320.022 68.7837 321.362 68.7867 323.013Z" fill="#2E2E36"/>
<path d="M76.6134 322.995C76.6134 324.653 75.2737 325.995 73.6227 325.998C71.9651 325.998 70.623 324.658 70.62 323.007C70.62 321.35 71.9597 320.008 73.6107 320.005C75.2682 320.005 76.6103 321.344 76.6134 322.995Z" fill="#2E2E36"/>
<path d="M84.6954 322.98C84.6954 324.637 83.3557 325.979 81.7047 325.982C80.0537 325.985 78.7051 324.643 78.7021 322.992C78.702 321.334 80.0417 319.992 81.6927 319.989C83.3503 319.989 84.6924 321.329 84.6954 322.98Z" fill="#2E2E36"/>
<path d="M74.0005 346.096C86.5607 346.096 96.7427 335.914 96.7427 323.354C96.7427 310.793 86.5607 300.611 74.0005 300.611C61.4403 300.611 51.2583 310.793 51.2583 323.354C51.2583 335.914 61.4403 346.096 74.0005 346.096Z" stroke="#2E2E36" stroke-width="0.821676" stroke-miterlimit="10"/>
<path d="M41.3214 207.677C53.8198 207.677 63.9518 197.545 63.9518 185.046C63.9518 172.548 53.8198 162.416 41.3214 162.416C28.8229 162.416 18.6909 172.548 18.6909 185.046C18.6909 197.545 28.8229 207.677 41.3214 207.677Z" stroke="#2E2E36" stroke-width="0.821676" stroke-miterlimit="10"/>
<path d="M36.7157 177.299C36.7157 179.37 35.0355 181.051 32.9643 181.051C30.8931 181.051 29.2129 179.37 29.2129 177.299C29.2129 175.228 30.8931 173.548 32.9643 173.548C35.0355 173.548 36.7157 175.228 36.7157 177.299Z" fill="#2E2E36"/>
<path d="M41.5611 190.862C41.5611 190.906 41.5611 190.942 41.5611 190.985H24.1294C24.1294 190.942 24.1294 190.906 24.1294 190.862C24.1294 186.517 28.0329 182.99 32.8489 182.99C37.6649 182.99 41.5683 186.517 41.5683 190.862H41.5611Z" fill="#2E2E36"/>
<path d="M55.8475 177.299C55.8475 179.37 54.1674 181.051 52.0961 181.051C50.0249 181.051 48.3447 179.37 48.3447 177.299C48.3447 175.228 50.0249 173.548 52.0961 173.548C54.1674 173.548 55.8475 175.228 55.8475 177.299Z" fill="#2E2E36"/>
<path d="M60.6929 190.861C60.6929 190.905 60.6929 190.941 60.6929 190.985H43.2612C43.2612 190.941 43.2612 190.905 43.2612 190.861C43.2612 186.516 47.1647 182.989 51.9807 182.989C56.7967 182.989 60.7002 186.516 60.7002 190.861H60.6929Z" fill="#2E2E36"/>
<path d="M46.4056 180.449C46.4056 182.52 44.7255 184.2 42.6542 184.2C40.583 184.2 38.9028 182.52 38.9028 180.449C38.9028 178.377 40.583 176.697 42.6542 176.697C44.7255 176.697 46.4056 178.377 46.4056 180.449Z" fill="#FDD800"/>
<path d="M51.251 194.013C51.251 194.056 51.251 194.092 51.251 194.136H33.8193C33.8193 194.092 33.8193 194.056 33.8193 194.013C33.8193 189.668 37.7228 186.141 42.5388 186.141C47.3548 186.141 51.2583 189.668 51.2583 194.013H51.251Z" fill="#FDD800"/>
<path d="M153.751 360.238C165.9 360.238 175.75 350.389 175.75 338.24C175.75 326.09 165.9 316.241 153.751 316.241C141.602 316.241 131.752 326.09 131.752 338.24C131.752 350.389 141.602 360.238 153.751 360.238Z" stroke="#2E2E36" stroke-width="0.821676" stroke-miterlimit="10"/>
<path d="M161.568 326.619L143.717 326.805C140.898 326.835 138.636 329.144 138.666 331.963L138.801 344.993C138.831 347.812 141.14 350.073 143.959 350.044L161.81 349.858C164.629 349.829 166.891 347.519 166.861 344.7L166.726 331.671C166.696 328.851 164.387 326.59 161.568 326.619Z" fill="#FDD800"/>
<path d="M153.023 354.772L148.075 346.402L157.801 346.305L153.023 354.772Z" fill="#FDD800"/>
<path d="M155.938 333.933C155.957 335.765 154.487 337.264 152.652 337.288C150.821 337.307 149.321 335.837 149.302 334.006C149.283 332.175 150.753 330.676 152.588 330.652C154.419 330.632 155.918 332.102 155.938 333.933Z" fill="#2E2E36"/>
<path d="M160.341 345.877C160.341 345.877 160.344 345.95 160.339 345.985L144.928 346.146C144.928 346.146 144.925 346.074 144.922 346.04C144.882 342.198 148.299 339.044 152.557 339.002C156.814 338.96 160.294 342.036 160.333 345.878L160.341 345.877Z" fill="#2E2E36"/>
</svg>
