<svg width="20" height="20" viewBox="0 0 20 20" fill="none" xmlns="http://www.w3.org/2000/svg">
<g clip-path="url(#clip0_4001_33902)">
<path d="M6.625 1V19M1 3.25C1 2.65326 1.23705 2.08097 1.65901 1.65901C2.08097 1.23705 2.65326 1 3.25 1H16.75C17.3467 1 17.919 1.23705 18.341 1.65901C18.7629 2.08097 19 2.65326 19 3.25V16.75C19 17.3467 18.7629 17.919 18.341 18.341C17.919 18.7629 17.3467 19 16.75 19H3.25C2.65326 19 2.08097 18.7629 1.65901 18.341C1.23705 17.919 1 17.3467 1 16.75V3.25Z" stroke="#717386" stroke-width="1.5" stroke-linecap="round" stroke-linejoin="round"/>
<path d="M13.55 7.5L11.05 10L13.55 12.5" stroke="#717386" stroke-width="1.35" stroke-linecap="round" stroke-linejoin="round"/>
</g>
<defs>
<clipPath id="clip0_4001_33902">
<rect width="20" height="20" fill="white"/>
</clipPath>
</defs>
</svg>
