<svg width="16" height="16" viewBox="0 0 16 16" fill="none" xmlns="http://www.w3.org/2000/svg">
<g clip-path="url(#clip0_4001_34050)">
<path d="M13.76 0H14.496L14.88 0.096L15.232 0.288L15.552 0.576L15.776 0.864L15.936 1.184L16 1.504V8.128L15.872 8.416L15.68 8.544L15.584 8.576H15.168L14.976 8.48L14.816 8.32L14.72 8.128L14.688 1.696L14.528 1.44L14.304 1.312H13.952L12.896 1.824L11.84 2.304L11.328 2.56L10.912 2.72L10.4 2.976L9.28 3.488L8.768 3.744L8.288 3.936L8 4L7.424 4.192L6.592 4.384L5.952 4.48L5.504 4.512V8.576L6.208 8.64L7.04 8.8L7.84 9.024L8.672 9.344L8.864 9.44L8.992 9.632L9.024 9.728V10.144L8.928 10.336L8.768 10.496L8.576 10.592H8.192L7.296 10.272L6.592 10.08L5.856 9.952L5.568 9.92L5.504 9.888V14.496L5.376 14.88L5.184 15.264L4.896 15.584L4.576 15.808L4.32 15.936L3.968 16H3.296L2.912 15.904L2.592 15.744L2.272 15.488L2.016 15.168L1.824 14.784L1.728 14.464V9.76L1.536 9.728L1.024 9.44L0.672 9.152L0.448 8.896L0.192 8.48L0.064 8.16L0 7.776V5.344L0.096 4.864L0.352 4.352L0.576 4.064L0.96 3.712L1.44 3.424L1.888 3.264L2.336 3.2H4.96L5.856 3.136L6.752 2.976L7.584 2.72L7.84 2.656L8.224 2.496L9.248 2.016L10.144 1.6L10.56 1.408L10.784 1.312L11.68 0.896L12.768 0.384L13.472 0.064L13.76 0ZM2.4 4.512L2.048 4.608L1.76 4.768L1.504 5.024L1.312 5.376L1.248 5.76V7.36L1.312 7.744L1.472 8.064H1.536L1.6 8.192L1.824 8.384L2.144 8.544L2.624 8.64L2.88 8.832L2.976 9.024L3.008 14.08L3.072 14.368L3.296 14.624L3.456 14.72H3.808L4.064 14.56L4.192 14.304L4.224 14.144V4.512H2.4Z" fill="#717386"/>
<path d="M14.848 9.72754H15.264L15.456 9.82354L15.616 9.98354L15.712 10.1755V10.5915L15.52 10.8795L15.168 11.2955L14.88 11.6475L14.656 11.9355H14.592L14.528 12.0955L14.144 12.5435L13.856 12.8955L13.568 13.2475H13.504L13.44 13.3755L13.248 13.6315L12.992 13.9515L12.64 14.3675L12.48 14.5915L12.32 14.7515L11.968 15.1675L11.84 15.3595L11.456 15.8075L11.328 15.9355L11.136 15.9995H10.72L10.464 15.8715L10.336 15.6795L10.304 15.5835V15.1675L10.432 14.9115L10.592 14.7195L10.688 14.6555L10.784 14.4955L11.136 14.0795L11.424 13.7275L11.68 13.4075H11.744L11.808 13.2795L12.032 12.9915L12.288 12.6715L12.736 12.1275L13.024 11.8075L13.312 11.4555L13.568 11.1035L13.888 10.7195H13.952L14.016 10.5915L14.368 10.1755L14.624 9.85554L14.848 9.72754Z" fill="#717386"/>
<path d="M10.6879 9.72754H11.1999L11.5839 9.91954L11.7759 10.1435L11.9039 10.4315V10.9435L11.7119 11.3275L11.4879 11.5195L11.1999 11.6475H10.6879L10.3039 11.4555L10.1119 11.2315L9.98389 10.9435V10.4315L10.1759 10.0475L10.3999 9.85554L10.6879 9.72754Z" fill="#717386"/>
<path d="M14.7841 14.1123H15.3281L15.7121 14.3043L15.9041 14.5283L16.0001 14.7843V15.3283L15.9041 15.5843L15.7121 15.8403L15.5521 15.9363L15.3281 16.0003H14.7841L14.4961 15.8723L14.3041 15.7123L14.1121 15.3283V14.7843L14.3041 14.4323L14.5281 14.2403L14.7841 14.1123Z" fill="#717386"/>
</g>
<defs>
<clipPath id="clip0_4001_34050">
<rect width="16" height="16" fill="white"/>
</clipPath>
</defs>
</svg>
