<svg width="16" height="16" viewBox="0 0 16 16" fill="none" xmlns="http://www.w3.org/2000/svg">
<g clip-path="url(#clip0_4001_34041)">
<path d="M2.752 0H13.056L13.312 0.128L13.44 0.32L13.472 0.416V1.12H14.752L15.136 1.248L15.52 1.472L15.776 1.76L15.936 2.048L16 2.368V5.248L15.904 5.632L15.776 5.888L15.936 6.176L16 6.496V9.376L15.904 9.76L15.776 10.016L15.936 10.304L16 10.624V11.776L15.872 12.032L15.68 12.16L15.584 12.192H15.168L14.912 12.064L14.752 11.84L14.72 11.744L14.688 10.816L14.56 10.688L14.432 10.656L13.472 10.624V13.472H14.624L14.88 13.6L15.04 13.824L15.072 13.92V14.336L14.944 14.592L14.656 14.752H13.472V15.584L13.344 15.84L13.152 15.968L13.056 16H2.752L2.368 15.904L2.016 15.712L1.632 15.36L1.408 15.008L1.248 14.496V13.856L1.056 13.792L0.672 13.568L0.352 13.248L0.288 13.088H0.224L0.064 12.768L0 12.416V11.712L0.096 11.296L0.288 10.944L0.48 10.72L0.864 10.432L1.184 10.272H1.248V10.112L1.056 10.048L0.672 9.824L0.384 9.536L0.16 9.184L0.064 9.024L0 8.672V7.968L0.096 7.552L0.288 7.2L0.64 6.816L0.864 6.688L1.184 6.528H1.248V6.368L1.056 6.304L0.672 6.08L0.384 5.792L0.16 5.44L0.064 5.248L0 4.928V4.192L0.096 3.808L0.288 3.456L0.64 3.072L0.992 2.848L1.184 2.752H1.248V1.504L1.44 0.928L1.696 0.576L2.016 0.288L2.432 0.064L2.752 0ZM3.136 1.248L2.88 1.312L2.688 1.44L2.592 1.568L2.528 1.856V2.688L3.36 2.72L3.52 2.784L3.712 3.008L3.744 3.104V3.52L3.648 3.712L3.616 3.808L3.488 3.872L3.424 3.904L1.888 3.936L1.632 4L1.44 4.128L1.28 4.384V4.736L1.44 4.992L1.696 5.152L2.112 5.216L2.368 5.376L2.496 5.6L2.528 6.432L3.36 6.464L3.616 6.624L3.744 6.88V7.264L3.648 7.456L3.616 7.552L3.488 7.616L3.328 7.68L1.888 7.712L1.632 7.776L1.376 7.936L1.28 8.128V8.48L1.44 8.736L1.696 8.896L2.112 8.96L2.368 9.12L2.496 9.376L2.528 10.176L3.36 10.208L3.616 10.368L3.744 10.624V11.008L3.648 11.2L3.488 11.36L3.328 11.424L1.888 11.456L1.632 11.52L1.44 11.648L1.28 11.904V12.224L1.44 12.48L1.696 12.64L2.176 12.736L2.368 12.864L2.496 13.12L2.528 14.144L2.624 14.496L2.816 14.656L2.944 14.72H12.192V1.248H3.136ZM13.472 2.4V5.248H14.432L14.656 5.152L14.72 5.056V2.592L14.56 2.432L14.432 2.4H13.472ZM13.472 6.528V9.376H14.432L14.656 9.28L14.72 9.184V6.688L14.656 6.592L14.432 6.528H13.472Z" fill="#717386"/>
<path d="M5.53608 4.83203H6.01608L6.27208 4.96003L6.59208 5.28003L6.62408 5.40803H6.68808L6.94408 5.85603L6.97608 5.98403V6.43203L6.84808 6.68803L6.46408 7.13603L6.27208 7.32803L6.30408 7.48803L6.59208 7.93603L6.62408 8.03203L6.78408 8.19203L7.16808 8.64003L7.42408 8.89603L7.77608 9.18403L7.93608 9.31203V9.37603L8.12808 9.44003L8.54408 9.69603L8.67208 9.66403L8.92808 9.40803L9.34408 9.08803L9.53608 8.99203H9.98408L10.3041 9.12003L10.5921 9.31203L10.9761 9.66403L11.1041 9.85603L11.1361 9.95203V10.432L11.0721 10.592H11.0081L10.9441 10.72L10.6881 10.944L10.3361 11.136L9.95208 11.232H9.12008L8.51208 11.104L8.03208 10.912L7.48808 10.624L7.26408 10.528L6.75208 10.144L6.20808 9.63203L5.72808 9.12003L5.40808 8.64003L5.15208 8.12803L4.96008 7.74403L4.76808 7.07203L4.73608 6.88003V6.01603L4.86408 5.56803L5.12008 5.15203L5.34408 4.92803L5.53608 4.83203Z" fill="#717386"/>
</g>
<defs>
<clipPath id="clip0_4001_34041">
<rect width="16" height="16" fill="white"/>
</clipPath>
</defs>
</svg>
