<svg width="16" height="16" viewBox="0 0 16 16" fill="none" xmlns="http://www.w3.org/2000/svg">
<g clip-path="url(#clip0_4001_34034)">
<path d="M7.84 0.288086H8.192L8.544 0.352086L8.896 0.480086L9.248 0.704086V0.768086L9.376 0.832086L9.888 1.37609L10.144 1.60009L10.592 2.04809L10.816 2.30409L11.2 2.68809L11.456 2.91209L11.936 3.39209L12.16 3.64809L12.544 4.03209L12.8 4.25609L13.248 4.70409L13.472 4.96009L14.592 6.08009L14.816 6.33609L15.168 6.68809L15.424 6.91209L15.936 7.42409L16 7.61609V8.03209L15.904 8.25609L15.712 8.41609L15.552 8.48009H15.232L14.976 8.38409L14.72 8.12809L14.592 7.96809L14.496 7.90409L14.464 10.2401L14.336 10.4961L14.24 10.5921L13.984 10.6881H13.632L13.376 10.5601L13.248 10.4001L13.184 10.2721L13.152 6.56009L12.064 5.47209L11.84 5.21609L10.72 4.09609L10.56 3.93609L9.408 2.78409L9.28 2.62409L9.024 2.40009L8.352 1.72809L8.128 1.63209L7.84 1.66409L7.68 1.76009L7.36 2.08009L7.104 2.30409L5.472 3.93609L5.28 4.09609L5.056 4.35209L4.16 5.24809L3.968 5.40809L3.744 5.66409L2.848 6.56009V13.1521L2.912 13.5041L3.104 13.8881L3.264 14.0481L3.52 14.2401L3.936 14.3681L5.664 14.4001V9.12009L5.824 8.86409L5.984 8.73608L6.144 8.67209H9.92L10.176 8.80009L10.336 8.99209L10.4 9.12009V14.4001L12.064 14.3681L12.48 14.2401L12.8 14.0161L12.992 13.7281L13.12 13.4081L13.184 12.9601L13.344 12.7041L13.536 12.5441L13.664 12.5121H13.952L14.208 12.6081L14.4 12.8321L14.464 12.9601V13.5681L14.336 14.0481L14.08 14.5601L13.792 14.9121L13.472 15.2001L13.152 15.4241L12.768 15.5841L12.416 15.6801L12.224 15.7121H9.6L9.376 15.6161L9.184 15.3921L9.12 15.2641V9.98409H6.944V15.2641L6.784 15.5201L6.624 15.6481L6.464 15.7121H3.776L3.328 15.6161L2.912 15.4561L2.624 15.2641L2.304 15.0081L2.016 14.6881L1.824 14.4001L1.632 13.9841L1.536 13.5681L1.504 7.90409L1.28 8.09609L1.056 8.35209L0.8 8.48009H0.48L0.224 8.38409L0.064 8.22409L0 8.03209V7.61609L0.096 7.39209L0.768 6.72009L1.024 6.49609L1.376 6.14409L1.6 5.88809L2.08 5.40809L2.336 5.18409L2.688 4.83209L2.912 4.57609L3.424 4.06409L3.68 3.84009L4.032 3.48809L4.256 3.23209L4.768 2.72009L5.024 2.49609L5.376 2.14409L5.6 1.88809L6.08 1.40809L6.336 1.18409L6.688 0.832086L6.848 0.672086L7.168 0.480086L7.52 0.352086L7.84 0.288086Z" fill="#FDD800"/>
</g>
<defs>
<clipPath id="clip0_4001_34034">
<rect width="16" height="16" fill="white"/>
</clipPath>
</defs>
</svg>
