<svg width="16" height="16" viewBox="0 0 16 16" fill="none" xmlns="http://www.w3.org/2000/svg">
<g clip-path="url(#clip0_4001_34057)">
<path d="M2.688 0H3.392L3.872 0.096L4.384 0.352L4.8 0.704L5.152 1.088L5.344 1.344V1.408L5.472 1.472L5.856 2.016L6.24 2.752L6.4 3.296L6.432 3.584V3.968L6.336 4.448L6.144 4.928L5.952 5.248H5.888L5.824 5.376L5.472 5.792L4.96 6.336L4.768 6.528L4.832 6.688L5.056 7.008L5.248 7.296L5.376 7.52L5.728 7.968L5.76 8.064L5.888 8.128L6.176 8.48L6.592 8.928L6.816 9.184L7.36 9.696L7.712 9.984L7.936 10.176V10.24L8.064 10.304L8.48 10.624L8.8 10.816L9.248 11.104V11.168L9.408 11.232L9.536 11.2L10.016 10.72L10.272 10.496L10.496 10.272L10.656 10.144H10.72V10.08L11.232 9.792L11.68 9.632L12.192 9.568L12.832 9.632L13.248 9.76L13.76 10.016L14.208 10.304L14.592 10.592V10.656L14.752 10.72L15.136 11.072L15.424 11.328L15.712 11.712L15.904 12.128L16 12.576V13.376L15.936 13.76L15.68 14.272L15.456 14.592L15.104 14.88L14.72 15.168L14.368 15.392L13.76 15.68L13.056 15.904L12.512 15.968L12.224 16H11.072L10.368 15.936L9.664 15.776L9.024 15.584L8.256 15.296L7.936 15.136L7.744 14.912L7.68 14.784V14.4L7.808 14.144L8.064 13.952L8.416 13.92L8.864 14.08L9.536 14.336L10.368 14.56L10.88 14.656L11.168 14.688H12.16L12.768 14.592L13.376 14.4L13.952 14.08L14.4 13.728L14.624 13.408L14.688 13.216V12.736L14.56 12.416L14.272 12.096L14.016 11.872L13.568 11.52L13.184 11.232L12.704 11.008L12.48 10.944H12L11.68 11.072L11.296 11.36L10.72 11.936L10.56 12.096L10.048 12.608L9.792 12.736H9.408L8.864 12.48L8.288 12.128L7.904 11.872L7.232 11.36L6.784 10.976L6.496 10.688L6.24 10.496L5.408 9.664L5.28 9.472L4.896 9.088L4.544 8.64L4.128 8.096L3.776 7.552L3.456 7.008L3.264 6.592V6.24L3.392 5.984L4.352 5.024L4.576 4.768L4.864 4.448L5.056 4.032L5.088 3.712L5.024 3.392L4.864 3.008L4.64 2.624L4.352 2.272L4 1.824L3.68 1.504L3.36 1.344L3.264 1.312H2.816L2.56 1.408L2.304 1.6L2.016 1.92L1.728 2.4L1.504 2.912L1.344 3.616L1.312 3.904V4.8L1.408 5.504L1.6 6.304L1.792 6.88L2.144 7.712L2.496 8.384L2.752 8.864L3.072 9.344V9.408H3.136L3.456 9.856L3.808 10.304L4.096 10.688L4.288 10.848L4.512 11.104L5.024 11.616L5.248 11.808L5.408 11.968L5.664 12.16L6.176 12.576L6.304 12.8L6.336 12.928V13.152L6.176 13.472L5.952 13.632L5.856 13.664H5.44L4.992 13.344L4.736 13.152L4.32 12.8L4.064 12.576L3.84 12.32L3.488 11.968L3.328 11.808L3.104 11.584L2.816 11.232L2.432 10.72L2.176 10.4L1.664 9.632L1.408 9.216L1.184 8.768L0.928 8.256L0.64 7.648L0.352 6.848L0.128 6.048L0.064 5.728L0 5.088V3.744L0.064 3.136L0.256 2.464L0.544 1.792L0.8 1.376L1.12 0.928L1.536 0.448L1.952 0.192L2.272 0.064L2.688 0Z" fill="#717386"/>
<path d="M13.7281 1.4082H14.1441L14.3041 1.5042L14.5281 1.6962L14.5921 1.8562V2.2722L14.4001 2.5922L14.1441 2.8162L13.1201 3.8402L12.9601 4.0002L11.7761 5.1842L11.6161 5.3442L10.4641 6.4962L10.3041 6.6562L10.0801 6.7842H9.63206L9.44006 6.6882L9.24806 6.4642L9.21606 6.3682V5.9522L9.34406 5.7282L9.63206 5.4082L9.88806 5.1842L10.8801 4.1922L11.0401 4.0322L12.1921 2.8802L12.3201 2.7202L12.5761 2.4962L13.6001 1.4722L13.7281 1.4082Z" fill="#717386"/>
<path d="M10.0161 0H10.4321L10.6881 0.128L10.8481 0.384L10.8801 0.704L10.7841 1.024L10.6241 1.312L10.4961 1.632L10.0481 2.56L9.53605 3.584L9.34405 3.744L9.08805 3.84L8.76805 3.808L8.57605 3.68L8.38405 3.456L8.35205 3.36V2.944L8.60805 2.432L9.08805 1.44L9.34405 0.928L9.50405 0.544L9.69605 0.192L9.82405 0.064L10.0161 0Z" fill="#717386"/>
<path d="M15.1679 5.15234H15.5839L15.7759 5.24834L15.9359 5.40834L15.9999 5.56834V6.01634L15.9039 6.24034L15.7439 6.30434V6.36834L15.2959 6.59234L14.9439 6.72034L14.3999 7.00834L13.6639 7.36034L13.0559 7.64834H12.6399L12.4479 7.55234L12.2239 7.29634L12.1919 7.20034V6.81634L12.2879 6.62434L12.5439 6.40034L13.4079 5.98434L13.9199 5.72834L14.5919 5.40834L14.8159 5.31234L15.1679 5.15234Z" fill="#717386"/>
</g>
<defs>
<clipPath id="clip0_4001_34057">
<rect width="16" height="16" fill="white"/>
</clipPath>
</defs>
</svg>
